<svg width="24" height="23" viewBox="0 0 24 23" fill="none" xmlns="http://www.w3.org/2000/svg">
    <path
        d="M11.9991 8.26005C11.6891 8.26005 11.3917 8.13688 11.1725 7.91763C10.9532 7.69839 10.8301 7.40104 10.8301 7.09098V1.42432C10.8301 1.11426 10.9532 0.816903 11.1725 0.597661C11.3917 0.378418 11.6891 0.255249 11.9991 0.255249C12.3092 0.255249 12.6066 0.378418 12.8258 0.597661C13.045 0.816903 13.1682 1.11426 13.1682 1.42432V7.09098C13.1682 7.40104 13.045 7.69839 12.8258 7.91763C12.6066 8.13688 12.3092 8.26005 11.9991 8.26005Z"
        fill="white" />
    <path
        d="M11.9992 22.7447C9.40956 22.744 6.90171 21.8376 4.90999 20.1825C2.91827 18.5274 1.56812 16.2278 1.09336 13.6821C0.618613 11.1363 1.04916 8.50467 2.31044 6.24293C3.57172 3.9812 5.5843 2.2318 7.99962 1.29772C8.15862 1.23042 8.32953 1.19576 8.50219 1.1958C8.67485 1.19584 8.84574 1.23057 9.00471 1.29794C9.16369 1.36531 9.3075 1.46394 9.42761 1.58797C9.54773 1.71201 9.64169 1.85891 9.70393 2.01996C9.76616 2.18102 9.79539 2.35293 9.78989 2.52551C9.78439 2.69808 9.74427 2.86778 9.6719 3.02455C9.59954 3.18131 9.49641 3.32193 9.36864 3.43806C9.24087 3.55419 9.09106 3.64346 8.92812 3.70057C7.07323 4.41739 5.52752 5.76048 4.55879 7.49715C3.59005 9.23381 3.25933 11.2546 3.62393 13.2095C3.98852 15.1644 5.02545 16.9301 6.55507 18.2009C8.08469 19.4716 10.0106 20.1672 11.9992 20.1672C13.9878 20.1672 15.9137 19.4716 17.4433 18.2009C18.973 16.9301 20.0099 15.1644 20.3745 13.2095C20.7391 11.2546 20.4084 9.23381 19.4396 7.49715C18.4709 5.76048 16.9252 4.41739 15.0703 3.70057C14.7598 3.57151 14.512 3.32618 14.3799 3.01696C14.2477 2.70774 14.2417 2.35912 14.3631 2.04551C14.4844 1.73191 14.7236 1.47816 15.0295 1.33845C15.3353 1.19874 15.6837 1.18412 16.0002 1.29772C18.4156 2.23184 20.4283 3.98136 21.6895 6.24324C22.9508 8.50512 23.3813 11.1369 22.9063 13.6828C22.4314 16.2286 21.081 18.5282 19.089 20.1831C17.097 21.8381 14.589 22.7443 11.9992 22.7447Z"
        fill="white" />
</svg>
