<svg width="16" height="16" viewBox="0 0 16 16" fill="none" xmlns="http://www.w3.org/2000/svg">
<path d="M11.4516 0.467191L3.92656 2.96719C-1.13177 4.65886 -1.13177 7.41719 3.92656 9.10052L6.1599 9.84219L6.90156 12.0755C8.5849 17.1339 11.3516 17.1339 13.0349 12.0755L15.5432 4.55886C16.6599 1.18386 14.8266 -0.657809 11.4516 0.467191ZM11.7182 4.95052L8.55156 8.13386C8.42656 8.25886 8.26823 8.31719 8.1099 8.31719C7.95156 8.31719 7.79323 8.25886 7.66823 8.13386C7.42656 7.89219 7.42656 7.49219 7.66823 7.25052L10.8349 4.06719C11.0766 3.82552 11.4766 3.82552 11.7182 4.06719C11.9599 4.30886 11.9599 4.70886 11.7182 4.95052Z" fill="url(#paint0_linear_1213_7980)"/>
<defs>
<linearGradient id="paint0_linear_1213_7980" x1="8.00166" y1="0.136719" x2="8.00166" y2="15.8693" gradientUnits="userSpaceOnUse">
<stop stop-color="#BF00B5"/>
<stop offset="1" stop-color="#FFA555"/>
</linearGradient>
</defs>
</svg>
