<svg width="20" height="20" viewBox="0 0 20 20" fill="none" xmlns="http://www.w3.org/2000/svg">
<path d="M17.4242 9.26562V5.60729C17.4242 4.92396 16.9076 4.14896 16.2659 3.89062L11.6242 1.99062C10.5826 1.56563 9.40755 1.56563 8.36589 1.99062L3.72422 3.89062C3.09089 4.14896 2.57422 4.92396 2.57422 5.60729V9.26562C2.57422 13.3406 5.53255 17.1573 9.57422 18.274C9.84922 18.349 10.1492 18.349 10.4242 18.274C14.4659 17.1573 17.4242 13.3406 17.4242 9.26562ZM10.6242 10.724V12.9156C10.6242 13.2573 10.3409 13.5406 9.99922 13.5406C9.65755 13.5406 9.37422 13.2573 9.37422 12.9156V10.724C8.53255 10.4573 7.91589 9.67396 7.91589 8.74896C7.91589 7.59896 8.84922 6.66562 9.99922 6.66562C11.1492 6.66562 12.0826 7.59896 12.0826 8.74896C12.0826 9.68229 11.4659 10.4573 10.6242 10.724Z" fill="url(#paint0_linear_1213_675)"/>
<defs>
<linearGradient id="paint0_linear_1213_675" x1="9.99922" y1="1.67187" x2="9.99922" y2="18.3302" gradientUnits="userSpaceOnUse">
<stop stop-color="#BF00B5"/>
<stop offset="1" stop-color="#FFA555"/>
</linearGradient>
</defs>
</svg>
